# xmcd CD database file
#
# Track frame offsets:
#	150
#	19487
#	39760
#	70862
#
# Disc length: 1200 seconds
#
# Revision: 0
# Processed by: cddbd v1.5PL3 Copyright (c) Steve Scherf et al.
# Submitted via: CDex 1.51
#
DISCID=2b04ae04
DTITLE=Loud-03 - Just Boom
DYEAR=2001
DGENRE=JPop
TTITLE0=Just Boom
TTITLE1=moon
TTITLE2=Just Boom 〜Groove That Soul Mix〜
TTITLE3=Just Boom 〜Original Back Track〜
EXTD=YEAR: 2001
EXTT0=
EXTT1=
EXTT2=
EXTT3=
PLAYORDER=
